HIERARCHY
ROOT joint_0
{
	OFFSET 0.000000 0.000000 0.000000
	CHANNELS 6 Xposition Yposition Zposition Zrotation Yrotation Xrotation 
	JOINT joint_1
	{
		OFFSET 11.612000 -0.419000 106.198000
		CHANNELS 3 Zrotation Yrotation Xrotation
		JOINT joint_2
		{
			OFFSET -1.708000 -1.022000 97.564090
			CHANNELS 3 Zrotation Yrotation Xrotation
			JOINT joint_3
			{
				OFFSET -4.121000 -1.538000 97.375000
				CHANNELS 3 Zrotation Yrotation Xrotation
				JOINT joint_4
				{
					OFFSET 5.442000 -2.123000 132.795900
					CHANNELS 3 Zrotation Yrotation Xrotation
					JOINT joint_5
					{
						OFFSET 21.935000 0.195000 82.975100
						CHANNELS 3 Zrotation Yrotation Xrotation
						End Site
						{
							OFFSET 0.000000 0.000000 0.000000
						}
					}
				}
				JOINT joint_6
				{
					OFFSET 4.262000 -30.048000 73.899900
					CHANNELS 3 Zrotation Yrotation Xrotation
					JOINT joint_7
					{
						OFFSET 9.731000 -136.810010 -21.963010
						CHANNELS 3 Zrotation Yrotation Xrotation
						JOINT joint_8
						{
							OFFSET 33.360000 -35.709000 -267.597900
							CHANNELS 3 Zrotation Yrotation Xrotation
							JOINT joint_9
							{
								OFFSET 36.156000 -29.759000 -240.558040
								CHANNELS 3 Zrotation Yrotation Xrotation
								End Site
								{
									OFFSET 0.000000 0.000000 0.000000
								}
							}
						}
					}
				}
				JOINT joint_10
				{
					OFFSET 2.027000 27.734000 74.914920
					CHANNELS 3 Zrotation Yrotation Xrotation
					JOINT joint_11
					{
						OFFSET -5.183000 136.784000 -23.604980
						CHANNELS 3 Zrotation Yrotation Xrotation
						JOINT joint_12
						{
							OFFSET 29.806000 37.229000 -267.809940
							CHANNELS 3 Zrotation Yrotation Xrotation
							JOINT joint_13
							{
								OFFSET 36.890000 46.524990 -237.772030
								CHANNELS 3 Zrotation Yrotation Xrotation
								End Site
								{
									OFFSET 0.000000 0.000000 0.000000
								}
							}
						}
					}
				}
			}
		}
	}
	JOINT joint_14
	{
		OFFSET -7.290000 -102.873990 -124.314940
		CHANNELS 3 Zrotation Yrotation Xrotation
		JOINT joint_15
		{
			OFFSET -15.466000 -19.909010 -438.533020
			CHANNELS 3 Zrotation Yrotation Xrotation
			JOINT joint_16
			{
				OFFSET -26.899000 -18.922000 -464.797000
				CHANNELS 3 Zrotation Yrotation Xrotation
				JOINT joint_17
				{
					OFFSET 179.329000 -12.011000 -84.174000
					CHANNELS 3 Zrotation Yrotation Xrotation
					End Site
					{
						OFFSET 0.000000 0.000000 0.000000
					}
				}
			}
		}
	}
	JOINT joint_18
	{
		OFFSET -6.225000 101.546000 -125.479980
		CHANNELS 3 Zrotation Yrotation Xrotation
		JOINT joint_19
		{
			OFFSET -13.973000 7.996000 -438.963010
			CHANNELS 3 Zrotation Yrotation Xrotation
			JOINT joint_20
			{
				OFFSET -44.294000 5.716000 -463.813970
				CHANNELS 3 Zrotation Yrotation Xrotation
				JOINT joint_21
				{
					OFFSET 178.505000 -4.689000 -85.139000
					CHANNELS 3 Zrotation Yrotation Xrotation
					End Site
					{
						OFFSET 0.000000 0.000000 0.000000
					}
				}
			}
		}
	}
}
MOTION
Frames: 15
Frame Time: 0.016667
-3341.638916 881.932312 1128.145996 -3.198034 -2.892629 1.039226 -0.502694 7.160833 -0.764513 -0.601925 -1.454739 0.180801 -0.570844 1.387566 -0.163753 0.021678 0.496854 -0.080965 0.000000 0.000000 0.000000 -0.684570 0.215000 0.107857 0.367012 0.113044 0.955404 2.559309 -11.957409 5.726599 0.000000 0.000000 0.000000 0.152475 -0.053576 -0.792844 -0.808985 -0.261987 -2.217970 -2.261844 -6.551202 -7.302243 0.000000 0.000000 0.000000 -1.929087 3.352767 -0.810728 -1.832928 1.058300 -0.861536 -1.704417 -2.149820 -0.943099 0.000000 0.000000 0.000000 4.951550 3.512751 -0.000552 4.854307 -1.546464 0.637385 4.737542 0.553248 2.267547 0.000000 0.000000 0.000000 
-3340.727539 881.729919 1128.168945 -3.112451 -2.801432 1.052440 -0.499334 7.271147 -0.734388 -0.601762 -1.463823 0.184621 -0.571450 1.394087 -0.168581 0.033460 0.399377 -0.124111 0.000000 0.000000 0.000000 -0.930864 0.557173 -0.032772 0.421218 0.431719 1.114190 3.089761 -15.048479 6.179066 0.000000 0.000000 0.000000 0.229813 0.115835 -0.785591 -0.825204 -0.102943 -2.113221 -2.537023 -7.785525 -7.785970 0.000000 0.000000 0.000000 -1.954826 3.343613 -0.811029 -1.856572 1.006709 -0.867090 -1.728736 -2.169772 -0.955808 0.000000 0.000000 0.000000 4.919141 3.481573 0.000280 4.821609 -1.598188 0.618308 4.705441 0.572856 2.252824 0.000000 0.000000 0.000000 
-3339.543457 881.601562 1128.185059 -3.008084 -2.659469 1.062454 -0.493958 7.352816 -0.653234 -0.600624 -1.468910 0.157484 -0.569240 1.396708 -0.151159 0.043652 0.270672 -0.161435 0.000000 0.000000 0.000000 -1.156910 1.086987 -0.189232 0.468820 0.935716 1.140774 3.823105 -19.491988 6.696800 0.000000 0.000000 0.000000 0.354185 0.396745 -0.807234 -0.839356 0.164701 -1.983285 -2.950914 -9.698140 -8.529194 0.000000 0.000000 0.000000 -1.988659 3.315117 -0.808846 -1.887165 0.915695 -0.875308 -1.761731 -2.182347 -0.972087 0.000000 0.000000 0.000000 4.883634 3.422052 -0.005280 4.785382 -1.677008 0.598490 4.670375 0.592832 2.236747 0.000000 0.000000 0.000000 
-3338.143555 881.520386 1128.208984 -2.885895 -2.475452 1.070301 -0.483997 7.415039 -0.528938 -0.595651 -1.469541 0.112267 -0.562392 1.394449 -0.121241 0.055858 0.114197 -0.207022 0.000000 0.000000 0.000000 -1.374073 1.764399 -0.218074 0.495305 1.568559 0.954363 4.684155 -25.022918 7.165056 0.000000 0.000000 0.000000 0.507842 0.753153 -0.901094 -0.833962 0.515641 -1.784531 -3.456171 -12.119820 -9.472658 0.000000 0.000000 0.000000 -2.029798 3.272144 -0.803197 -1.923750 0.787757 -0.887084 -1.802689 -2.182858 -0.991283 0.000000 0.000000 0.000000 4.842840 3.338314 -0.014406 4.743597 -1.779649 0.577210 4.630361 0.619213 2.218506 0.000000 0.000000 0.000000 
-3336.291016 881.360657 1128.155029 -2.756789 -2.250287 1.083743 -0.478805 7.474834 -0.412013 -0.595467 -1.475318 0.070393 -0.560582 1.396455 -0.091348 0.066415 -0.082847 -0.248417 0.000000 0.000000 0.000000 -1.597039 2.498463 -0.321154 0.532329 2.262379 0.783548 5.609768 -31.393240 7.521401 0.000000 0.000000 0.000000 0.665553 1.293458 -0.854270 -0.803082 1.056820 -1.613139 -4.150682 -15.735162 -10.716608 0.000000 0.000000 0.000000 -2.072137 3.205511 -0.809542 -1.964500 0.680048 -0.878965 -1.842822 -2.251631 -1.014654 0.000000 0.000000 0.000000 4.805870 3.259986 -0.022436 4.705292 -1.924881 0.540450 4.592969 0.635229 2.201215 0.000000 0.000000 0.000000 
-3333.883301 881.066528 1127.943970 -2.629006 -1.983344 1.108869 -0.487501 7.539491 -0.322388 -0.608914 -1.491689 0.038640 -0.572946 1.408635 -0.067753 0.071793 -0.333747 -0.273783 0.000000 0.000000 0.000000 -1.831950 3.263789 -0.554243 0.620072 2.997132 0.764342 6.589026 -38.725876 7.584197 0.000000 0.000000 0.000000 0.794280 2.113743 -0.710741 -0.674591 1.921200 -1.325430 -5.091473 -21.198956 -12.472480 0.000000 0.000000 0.000000 -2.110952 3.100444 -0.845941 -2.008909 0.640324 -0.824996 -1.875270 -2.456633 -1.043543 0.000000 0.000000 0.000000 4.783692 3.208654 -0.030892 4.681062 -2.137608 0.478282 4.568011 0.639547 2.189475 0.000000 0.000000 0.000000 
-3331.013428 880.683472 1127.609985 -2.497675 -1.674053 1.143082 -0.507033 7.602385 -0.240928 -0.633138 -1.518855 0.005615 -0.595817 1.433518 -0.044471 0.071175 -0.637558 -0.281182 0.000000 0.000000 0.000000 -2.075262 4.051153 -0.701166 0.757960 3.727342 0.688613 7.607319 -46.954070 7.332236 0.000000 0.000000 0.000000 0.899221 3.114967 -0.747741 -0.385182 3.050531 -0.693531 -6.136564 -28.148947 -14.644496 0.000000 0.000000 0.000000 -2.148565 2.960174 -0.906168 -2.057631 0.646706 -0.734494 -1.903454 -2.765444 -1.077372 0.000000 0.000000 0.000000 4.773126 3.172717 -0.041130 4.667840 -2.411276 0.394839 4.553120 0.641722 2.182393 0.000000 0.000000 0.000000 
-3327.423828 880.109009 1127.237061 -2.359273 -1.328807 1.177128 -0.517143 7.681895 -0.213086 -0.646811 -1.550200 -0.011534 -0.609228 1.460052 -0.031750 0.055360 -0.974536 -0.236897 0.000000 0.000000 0.000000 -2.326619 4.763297 -0.865408 0.834696 4.350743 0.330271 8.584009 -55.368474 7.457642 0.000000 0.000000 0.000000 0.957427 4.128937 -0.717518 -0.053922 4.233983 -0.011201 -7.127790 -35.954792 -16.469504 0.000000 0.000000 0.000000 -2.189318 2.825613 -0.951098 -2.108484 0.653015 -0.651844 -1.932716 -3.109790 -1.114021 0.000000 0.000000 0.000000 4.750225 3.143578 -0.028266 4.643227 -2.688178 0.296133 4.525911 0.598999 2.168085 0.000000 0.000000 0.000000 
-3322.996582 879.268738 1126.886963 -2.211063 -0.950569 1.206113 -0.502065 7.815251 -0.282669 -0.633520 -1.580707 0.002625 -0.598115 1.482132 -0.038532 0.017086 -1.353286 -0.115803 0.000000 0.000000 0.000000 -2.577849 5.400145 -1.123255 0.661020 4.864907 -0.543146 9.446537 -64.035190 8.446842 0.000000 0.000000 0.000000 0.929945 5.111880 -0.418509 0.202117 5.382082 0.529560 -8.055091 -44.650165 -17.452460 0.000000 0.000000 0.000000 -2.236794 2.714144 -0.954275 -2.161438 0.638358 -0.607859 -1.967579 -3.446773 -1.152682 0.000000 0.000000 0.000000 4.698171 3.113463 0.029991 4.591895 -2.933738 0.175391 4.469903 0.481449 2.137858 0.000000 0.000000 0.000000 
-3317.836182 878.204590 1126.531982 -2.053281 -0.537106 1.233491 -0.470241 7.997100 -0.428863 -0.602038 -1.612004 0.036157 -0.570735 1.501491 -0.060958 -0.043258 -1.781490 0.080016 0.000000 0.000000 0.000000 -2.839388 5.943138 -1.351210 0.178665 5.227803 -1.911973 10.149833 -73.202616 10.004761 0.000000 0.000000 0.000000 0.841185 6.086381 -0.078724 0.377534 6.499791 1.134405 -8.931050 -54.313175 -17.731107 0.000000 0.000000 0.000000 -2.289583 2.610280 -0.930002 -2.217486 0.619414 -0.585577 -2.006503 -3.795700 -1.193909 0.000000 0.000000 0.000000 4.625738 3.084906 0.124942 4.522090 -3.169948 0.030447 4.393468 0.310531 2.096254 0.000000 0.000000 0.000000 
-3311.670410 876.930603 1126.119019 -1.893289 -0.090010 1.255938 -0.436392 8.095879 -0.593949 -0.566213 -1.618172 0.073490 -0.540372 1.499839 -0.086598 -0.112467 -2.173686 0.309650 0.000000 0.000000 0.000000 -3.111477 6.168618 -1.563268 -0.557034 5.277723 -3.390235 10.647690 -81.654515 12.017285 0.000000 0.000000 0.000000 0.754965 6.994859 0.228991 0.389336 7.442403 1.755086 -9.699028 -63.847838 -17.171152 0.000000 0.000000 0.000000 -2.343409 2.550581 -0.880389 -2.269689 0.560255 -0.578467 -2.043803 -4.154026 -1.234800 0.000000 0.000000 0.000000 4.542583 3.067502 0.229776 4.441069 -3.387278 -0.087860 4.308355 0.096365 2.049004 0.000000 0.000000 0.000000 
-3304.267090 875.466248 1125.613037 -1.735193 0.394335 1.277107 -0.406506 8.015727 -0.740921 -0.531670 -1.588536 0.105516 -0.512533 1.470374 -0.107711 -0.178379 -2.458454 0.538283 0.000000 0.000000 0.000000 -3.374483 5.941960 -1.811147 -1.519878 5.003227 -4.781883 10.973199 -88.965715 14.626366 0.000000 0.000000 0.000000 0.686282 7.908469 0.532560 0.172039 8.200748 2.231855 -10.392336 -73.009718 -15.332389 0.000000 0.000000 0.000000 -2.393960 2.563868 -0.816230 -2.311730 0.425205 -0.578430 -2.074454 -4.517172 -1.272610 0.000000 0.000000 0.000000 4.453013 3.066717 0.317374 4.351066 -3.580753 -0.141400 4.220262 -0.150279 1.998977 0.000000 0.000000 0.000000 
-3295.733887 873.806519 1125.034058 -1.576705 0.917455 1.299059 -0.374133 7.806488 -0.893914 -0.492529 -1.533898 0.141752 -0.482741 1.420989 -0.129901 -0.242953 -2.668865 0.775521 0.000000 0.000000 0.000000 -3.638190 5.234067 -2.059129 -2.821471 4.467591 -6.244567 -168.903630 -84.175082 -162.087674 0.000000 0.000000 0.000000 0.610084 8.858326 0.859053 -0.237717 8.729571 2.539697 -11.089158 -82.175747 -12.250842 0.000000 0.000000 0.000000 -2.442687 2.634476 -0.737080 -2.346240 0.227944 -0.587494 -2.101102 -4.877583 -1.308006 0.000000 0.000000 0.000000 4.354074 3.077922 0.397240 4.249944 -3.754867 -0.148814 4.125391 -0.424846 1.944457 0.000000 0.000000 0.000000 
-3286.276123 871.902893 1124.390015 -1.421459 1.454745 1.299008 -0.353728 7.527122 -1.062995 -0.464410 -1.466795 0.185831 -0.466243 1.360374 -0.158246 -0.316113 -2.869233 1.061013 0.000000 0.000000 0.000000 -3.936178 3.961930 -2.325669 -4.276650 3.707276 -7.378915 -168.980980 -78.384805 -158.628606 0.000000 0.000000 0.000000 0.560773 9.552504 1.176868 -0.511159 8.802481 3.046783 168.248471 -89.748773 170.158534 0.000000 0.000000 0.000000 -2.495480 2.749107 -0.601265 -2.379715 0.016071 -0.626708 -2.130515 -5.216304 -1.342833 0.000000 0.000000 0.000000 4.254607 3.111264 0.507729 4.148224 -3.903529 -0.129055 4.031872 -0.727272 1.889286 0.000000 0.000000 0.000000 
-3275.943359 869.656067 1123.671997 -1.271845 1.996670 1.256600 -0.353019 7.217384 -1.275510 -0.454683 -1.403463 0.251908 -0.469711 1.293678 -0.201176 -0.405035 -3.083448 1.421786 0.000000 0.000000 0.000000 -4.297944 2.142756 -2.589633 -5.721362 2.810367 -7.991106 -169.228587 -74.033918 -155.212686 0.000000 0.000000 0.000000 0.522781 9.791980 1.420958 -0.309431 8.425155 4.232236 167.743892 -83.230749 170.396472 0.000000 0.000000 0.000000 -2.555653 2.909421 -0.363752 -2.413416 -0.202292 -0.724793 -2.166568 -5.509814 -1.377240 0.000000 0.000000 0.000000 4.158710 3.189621 0.681074 4.050325 -4.058730 -0.091274 3.944157 -1.047315 1.835709 0.000000 0.000000 0.000000 
